
<svg xmlns="http://www.w3.org/2000/svg" viewBox="0 0 64 64">
  <!-- Yellow background circle -->
  <circle cx="32" cy="32" r="32" fill="#FFD700"/>
  
  <!-- Black hard hat/helmet -->
  <path d="M32 12c-8 0-14 4-14 8v4c0 2 1 4 3 5v3c0 3 5 6 11 6s11-3 11-6v-3c2-1 3-3 3-5v-4c0-4-6-8-14-8z" fill="#000000"/>
  
  <!-- Helmet brim -->
  <ellipse cx="32" cy="20" rx="14" ry="3" fill="#000000"/>
  
  <!-- Shield icon on helmet -->
  <path d="M32 22l-4 2v4c0 2 2 4 4 4s4-2 4-4v-4l-4-2z" fill="#FFD700"/>
  
  <!-- Text BHP -->
  <text x="32" y="50" font-family="Arial, sans-serif" font-size="12" font-weight="bold" text-anchor="middle" fill="#000000">BHP</text>
</svg>
